<svg width="128" height="39" viewBox="0 0 128 39" fill="none" xmlns="http://www.w3.org/2000/svg">
<path d="M33.7871 18.6528H29.802L32.2277 16.1987C32.5743 15.8481 32.5743 15.3222 32.2277 14.9716C31.8812 14.621 31.3614 14.621 31.0149 14.9716L27.3762 18.6528H24.6617L26.1056 17.192C26.4521 16.8414 26.4521 16.3155 26.1056 15.9649C25.7591 15.6144 25.2393 15.6144 24.8927 15.9649L22.236 18.6528H19.4637L24.6617 13.394H29.802C30.264 13.394 30.6683 12.985 30.6683 12.5175C30.6683 12.0501 30.264 11.6411 29.802 11.6411H26.3944L29.571 8.42738C29.9175 8.07679 29.9175 7.55092 29.571 7.20033C29.2244 6.84975 28.7046 6.84975 28.3581 7.20033L25.1815 10.414V6.96661C25.1238 6.44073 24.7772 6.09015 24.2574 6.09015C23.7376 6.09015 23.3911 6.49916 23.3911 6.96661V12.1669L18.1931 17.4257V14.621L20.8498 11.9332C21.1964 11.5826 21.1964 11.0568 20.8498 10.7062C20.5033 10.3556 19.9835 10.3556 19.637 10.7062L18.1931 12.1669V9.4207L21.8317 5.73957C22.1782 5.38898 22.1782 4.86311 21.8317 4.51252C21.4851 4.16194 20.9653 4.16194 20.6188 4.51252L18.1931 6.96661V2.87646C18.1931 2.40901 17.7888 2 17.3267 2C16.8647 2 16.4604 2.40901 16.4604 2.87646V6.90818L14.0347 4.45409C13.6881 4.10351 13.1683 4.10351 12.8218 4.45409C12.4752 4.80467 12.4752 5.33055 12.8218 5.68114L16.4604 9.36227V12.1085L15.0165 10.6477C14.67 10.2972 14.1502 10.2972 13.8036 10.6477C13.4571 10.9983 13.4571 11.5242 13.8036 11.8748L16.4604 14.5626V17.3673L11.2624 12.1085V6.90818C11.2624 6.44073 10.8581 6.09015 10.396 6.09015C9.93399 6.09015 9.5297 6.49916 9.5297 6.96661V10.414L6.35314 7.20033C6.0066 6.84975 5.4868 6.84975 5.14026 7.20033C4.79373 7.55092 4.79373 8.07679 5.14026 8.42738L8.31683 11.6411H4.90924C4.38944 11.6411 4.0429 11.9917 4.0429 12.5175C4.0429 13.0434 4.44719 13.394 4.90924 13.394H10.0495L15.2475 18.6528H12.4752L9.81848 15.9649C9.47195 15.6144 8.95214 15.6144 8.60561 15.9649C8.25908 16.3155 8.25908 16.8414 8.60561 17.192L10.0495 18.6528H7.33498L3.69637 14.9716C3.34983 14.621 2.83003 14.621 2.4835 14.9716C2.13696 15.3222 2.13696 15.8481 2.4835 16.1987L4.90924 18.6528H0.866337C0.40429 18.6528 0 19.0618 0 19.5292C0 19.9967 0.40429 20.4057 0.866337 20.4057H4.85148L2.42574 22.8598C2.07921 23.2103 2.07921 23.7362 2.42574 24.0868C2.59901 24.2621 2.83003 24.3205 3.06106 24.3205C3.29208 24.3205 3.5231 24.2621 3.69637 24.0868L7.33498 20.4057H10.0495L8.54785 21.8664C8.20132 22.217 8.20132 22.7429 8.54785 23.0935C8.72112 23.2688 8.95214 23.3272 9.18317 23.3272C9.41419 23.3272 9.64521 23.2688 9.81848 23.0935L12.4752 20.4057H15.2475L10.0495 25.6644H4.90924C4.38944 25.6644 4.0429 26.0735 4.0429 26.5409C4.0429 27.0083 4.44719 27.4174 4.90924 27.4174H8.31683L5.14026 30.631C4.79373 30.9816 4.79373 31.5075 5.14026 31.8581C5.31353 32.0334 5.54455 32.0918 5.77558 32.0918C6.0066 32.0918 6.23762 32.0334 6.41089 31.8581L9.58746 28.6444V32.0918C9.58746 32.5593 9.99175 32.9683 10.4538 32.9683C10.9158 32.9683 11.3201 32.5593 11.3201 32.0918V26.8915L16.5182 21.6327V24.4374L13.8036 27.1252C13.4571 27.4758 13.4571 28.0017 13.8036 28.3523C13.9769 28.5275 14.2079 28.586 14.4389 28.586C14.67 28.586 14.901 28.5275 15.0743 28.3523L16.5182 26.8915V29.6377L12.8795 33.3189C12.533 33.6694 12.533 34.1953 12.8795 34.5459C13.0528 34.7212 13.2838 34.7796 13.5149 34.7796C13.7459 34.7796 13.9769 34.7212 14.1502 34.5459L16.5759 32.0918V36.1235C16.5759 36.591 16.9802 37 17.4422 37C17.9043 37 18.3086 36.591 18.3086 36.1235V32.0918L20.7343 34.5459C20.9076 34.7212 21.1386 34.7796 21.3696 34.7796C21.6007 34.7796 21.8317 34.7212 22.0049 34.5459C22.3515 34.1953 22.3515 33.6694 22.0049 33.3189L18.3663 29.6377V26.8915L19.8102 28.3523C19.9835 28.5275 20.2145 28.586 20.4455 28.586C20.6766 28.586 20.9076 28.5275 21.0809 28.3523C21.4274 28.0017 21.4274 27.4758 21.0809 27.1252L18.4241 24.4374V21.6327L23.6221 26.8915V32.0918C23.6221 32.5593 24.0264 32.9683 24.4884 32.9683C24.9505 32.9683 25.3548 32.5593 25.3548 32.0918V28.6444L28.5314 31.8581C28.7046 32.0334 28.9356 32.0918 29.1667 32.0918C29.3977 32.0918 29.6287 32.0334 29.802 31.8581C30.1485 31.5075 30.1485 30.9816 29.802 30.631L26.6254 27.4174H30.033C30.495 27.4174 30.8993 27.0083 30.8993 26.5409C30.8993 26.0735 30.495 25.6644 30.033 25.6644H24.8927L19.6947 20.4057H22.467L25.1238 23.0935C25.297 23.2688 25.5281 23.3272 25.7591 23.3272C25.9901 23.3272 26.2211 23.2688 26.3944 23.0935C26.7409 22.7429 26.7409 22.217 26.3944 21.8664L24.9505 20.4057H27.665L31.3036 24.0868C31.4769 24.2621 31.7079 24.3205 31.9389 24.3205C32.17 24.3205 32.401 24.2621 32.5743 24.0868C32.9208 23.7362 32.9208 23.2103 32.5743 22.8598L30.1485 20.4057H34.1337C34.5957 20.4057 35 19.9967 35 19.5292C35 19.0618 34.2492 18.6528 33.7871 18.6528Z" fill="#75D6FF"/>
<path d="M35.0455 31L38.9091 7.72727H48.9545C50.6818 7.72727 52.1364 8.06818 53.3182 8.75C54.5 9.43182 55.3485 10.3902 55.8636 11.625C56.3788 12.8598 56.5 14.303 56.2273 15.9545C55.9545 17.6364 55.3485 19.0871 54.4091 20.3068C53.4773 21.5189 52.2879 22.4545 50.8409 23.1136C49.4015 23.7652 47.7879 24.0909 46 24.0909H40L40.8182 19.1818H45.5455C46.303 19.1818 46.9697 19.053 47.5455 18.7955C48.1212 18.5303 48.5871 18.1591 48.9432 17.6818C49.2992 17.197 49.5303 16.6212 49.6364 15.9545C49.7424 15.2879 49.6932 14.7197 49.4886 14.25C49.2917 13.7727 48.9508 13.4091 48.4659 13.1591C47.9886 12.9015 47.3788 12.7727 46.6364 12.7727H44.4091L41.3636 31H35.0455ZM66.2273 7.72727L62.3636 31H56.0455L59.9091 7.72727H66.2273ZM75.7216 7.72727L78.4034 14.5H78.5852L83.5852 7.72727H90.9034L82.0398 19.3636L87.3125 31H80.267L77.4489 24.0909H77.267L72.1761 31H64.8125L73.9034 19.3636L68.9034 7.72727H75.7216ZM89.7642 31L93.6278 7.72727H110.401L109.537 12.8182H99.0824L98.446 16.8182H108.037L107.173 21.9091H97.5824L96.946 25.9091H107.355L106.491 31H89.7642ZM109.67 31L113.534 7.72727H119.852L116.852 25.9091H126.261L125.398 31H109.67Z" fill="black"/>
</svg>
